<mxfile host="drawio-plugin" modified="2022-08-09T00:56:30.613Z" agent="5.0 (Macintosh; Intel Mac OS X 10_15_7) AppleWebKit/537.36 (KHTML, like Gecko) Chrome/98.0.4758.102 Safari/537.36" version="15.5.4" etag="qPzR86XQeNO51uq9bGJI" type="embed"><diagram id="HIxYaDhLdrkqgs9d-qxr" name="Page-1"><mxGraphModel dx="861" dy="799" grid="0" gridSize="10" guides="1" tooltips="1" connect="1" arrows="1" fold="1" page="1" pageScale="1" pageWidth="850" pageHeight="1100" background="#EEEEEE" math="0" shadow="0"><root><mxCell id="0"/><mxCell id="1" parent="0"/><mxCell id="8" style="edgeStyle=orthogonalEdgeStyle;curved=1;rounded=1;sketch=1;orthogonalLoop=1;jettySize=auto;html=1;exitX=1;exitY=0.5;exitDx=0;exitDy=0;fontColor=#1A1A1A;strokeColor=#182E3E;" edge="1" parent="1" source="2" target="3"><mxGeometry relative="1" as="geometry"/></mxCell><mxCell id="2" value="加载本地Resource&lt;br&gt;资源文件" style="rounded=0;whiteSpace=wrap;html=1;sketch=1;fontColor=#1A1A1A;strokeColor=#909090;fillColor=#F5AB50;" vertex="1" parent="1"><mxGeometry x="90" y="270" width="120" height="60" as="geometry"/></mxCell><mxCell id="9" style="edgeStyle=orthogonalEdgeStyle;curved=1;rounded=1;sketch=1;orthogonalLoop=1;jettySize=auto;html=1;exitX=1;exitY=0.5;exitDx=0;exitDy=0;fontColor=#1A1A1A;strokeColor=#182E3E;" edge="1" parent="1" source="3" target="4"><mxGeometry relative="1" as="geometry"/></mxCell><mxCell id="3" value="&lt;font color=&quot;#000033&quot; style=&quot;font-size: 14px&quot;&gt;解析Resource&lt;/font&gt;" style="ellipse;whiteSpace=wrap;html=1;rounded=1;sketch=1;fontColor=#ffffff;strokeColor=#005700;fillColor=#008a00;" vertex="1" parent="1"><mxGeometry x="260" y="260" width="120" height="80" as="geometry"/></mxCell><mxCell id="10" style="edgeStyle=orthogonalEdgeStyle;curved=1;rounded=1;sketch=1;orthogonalLoop=1;jettySize=auto;html=1;exitX=1;exitY=0.5;exitDx=0;exitDy=0;fontColor=#1A1A1A;strokeColor=#182E3E;" edge="1" parent="1" source="4" target="6"><mxGeometry relative="1" as="geometry"/></mxCell><mxCell id="11" style="edgeStyle=orthogonalEdgeStyle;curved=1;rounded=1;sketch=1;orthogonalLoop=1;jettySize=auto;html=1;exitX=0.5;exitY=1;exitDx=0;exitDy=0;fontColor=#1A1A1A;strokeColor=#182E3E;" edge="1" parent="1" source="4" target="7"><mxGeometry relative="1" as="geometry"/></mxCell><mxCell id="4" value="根据Resource配置&lt;br&gt;填充BeanDefinition" style="rounded=0;whiteSpace=wrap;html=1;sketch=1;fontColor=#1A1A1A;strokeColor=#909090;fillColor=#F5AB50;" vertex="1" parent="1"><mxGeometry x="430" y="270" width="120" height="60" as="geometry"/></mxCell><mxCell id="12" style="edgeStyle=orthogonalEdgeStyle;curved=1;rounded=1;sketch=1;orthogonalLoop=1;jettySize=auto;html=1;exitX=1;exitY=0.5;exitDx=0;exitDy=0;fontColor=#1A1A1A;strokeColor=#182E3E;" edge="1" parent="1" source="5" target="7"><mxGeometry relative="1" as="geometry"/></mxCell><mxCell id="5" value="createBean()" style="rounded=0;whiteSpace=wrap;html=1;sketch=1;fontColor=#1A1A1A;strokeColor=#909090;fillColor=#F5AB50;" vertex="1" parent="1"><mxGeometry x="260" y="404" width="120" height="60" as="geometry"/></mxCell><mxCell id="6" value="封装PropertyValues" style="rounded=0;whiteSpace=wrap;html=1;sketch=1;fontColor=#1A1A1A;strokeColor=#909090;fillColor=#F5AB50;" vertex="1" parent="1"><mxGeometry x="600" y="270" width="120" height="60" as="geometry"/></mxCell><mxCell id="7" value="Registry&lt;br&gt;BeanDefinition" style="rounded=0;whiteSpace=wrap;html=1;sketch=1;fontColor=#1A1A1A;strokeColor=#909090;fillColor=#F5AB50;" vertex="1" parent="1"><mxGeometry x="430" y="404" width="120" height="60" as="geometry"/></mxCell></root></mxGraphModel></diagram></mxfile>